# xmcd
#
# Track frame offsets:
#	165
#	10303
#	30282
#	44144
#	55573
#	68618
#	85686
#	98921
#	111768
#	126808
#	138815
#	153103
#
# Disc length: 2181 seconds
#
# Revision: 0
# Processed by: cddbd v1.5PL3 Copyright (c) Steve Scherf et al.
# Submitted via: dBpowerAMP V4.0
#
DISCID=8a08830c
DTITLE=Various Artist - O Passado É Uma Parada - Vol. 9
DYEAR=1900
DGENRE=Easy Listening
TTITLE0=Secos e Molhados/O Vira
TTITLE1=Leonardo/Evidências
TTITLE2=Vanusa/Paralelas
TTITLE3=Renato Guimarães/Poema
TTITLE4=Edith Veiga/Faz Me Rir
TTITLE5=Silvio Brito/Tá Todo Mundo Louco
TTITLE6=Claudia Barroso/Voce Mudou Demais
TTITLE7=Lindomar Castilho/Rasguei o Teu Retrato
TTITLE8=Alipio Martins/Oh! Darcy
TTITLE9=Amado Batista/Vitamina e Cura
TTITLE10=Waldik Soriano/Tortura de Amor
TTITLE11=Reginaldo Rossi/O Pão
EXTD=
EXTT0=
EXTT1=
EXTT2=
EXTT3=
EXTT4=
EXTT5=
EXTT6=
EXTT7=
EXTT8=
EXTT9=
EXTT10=
EXTT11=
PLAYORDER=
